<svg width="32" height="32" viewBox="0 0 32 32" xmlns="http://www.w3.org/2000/svg">
  <defs>
    <!-- Gradiente para el favicon -->
    <linearGradient id="faviconGradient" x1="0%" y1="0%" x2="100%" y2="100%">
      <stop offset="0%" style="stop-color:#00d4ff;stop-opacity:1" />
      <stop offset="100%" style="stop-color:#00ff88;stop-opacity:1" />
    </linearGradient>
  </defs>
  
  <!-- Fondo circular -->
  <circle cx="16" cy="16" r="16" fill="url(#faviconGradient)"/>
  
  <!-- Circuito integrado estilizado -->
  <g transform="translate(6, 6)">
    <!-- Base del chip -->
    <rect x="0" y="0" width="20" height="20" fill="#ffffff" rx="3"/>
    
    <!-- Líneas de conexión -->
    <line x1="0" y1="5" x2="-2" y2="5" stroke="#00d4ff" stroke-width="1.5" opacity="0.8"/>
    <line x1="0" y1="10" x2="-2" y2="10" stroke="#00d4ff" stroke-width="1.5" opacity="0.8"/>
    <line x1="0" y1="15" x2="-2" y2="15" stroke="#00d4ff" stroke-width="1.5" opacity="0.8"/>
    
    <line x1="20" y1="5" x2="22" y2="5" stroke="#00ff88" stroke-width="1.5" opacity="0.8"/>
    <line x1="20" y1="10" x2="22" y2="10" stroke="#00ff88" stroke-width="1.5" opacity="0.8"/>
    <line x1="20" y1="15" x2="22" y2="15" stroke="#00ff88" stroke-width="1.5" opacity="0.8"/>
    
    <line x1="5" y1="0" x2="5" y2="-2" stroke="#00d4ff" stroke-width="1.5" opacity="0.8"/>
    <line x1="10" y1="0" x2="10" y2="-2" stroke="#00d4ff" stroke-width="1.5" opacity="0.8"/>
    <line x1="15" y1="0" x2="15" y2="-2" stroke="#00d4ff" stroke-width="1.5" opacity="0.8"/>
    
    <line x1="5" y1="20" x2="5" y2="22" stroke="#00ff88" stroke-width="1.5" opacity="0.8"/>
    <line x1="10" y1="20" x2="10" y2="22" stroke="#00ff88" stroke-width="1.5" opacity="0.8"/>
    <line x1="15" y1="20" x2="15" y2="22" stroke="#00ff88" stroke-width="1.5" opacity="0.8"/>
    
    <!-- Puntos de conexión -->
    <circle cx="5" cy="5" r="1" fill="#00d4ff"/>
    <circle cx="10" cy="10" r="1.5" fill="#00d4ff"/>
    <circle cx="15" cy="15" r="1" fill="#00ff88"/>
    
    <!-- Líneas internas del circuito -->
    <path d="M 5 5 L 10 10 L 15 15" stroke="#00d4ff" stroke-width="1" opacity="0.6"/>
    <path d="M 15 5 L 10 10 L 5 15" stroke="#00ff88" stroke-width="1" opacity="0.6"/>
  </g>
</svg>

